{
  "asset": {
    "version": "2.0",
    "generator": "THREE.GLTFExporter"
  },
  "scenes": [
    {
      "nodes": [
        0
      ]
    }
  ],
  "scene": 0,
  "nodes": [
    {
      "children": [
        5
      ],
      "matrix": [
        0.01,
        0,
        0,
        0,
        0,
        0.01,
        0,
        0,
        0,
        0,
        0.01,
        0,
        0,
        0,
        0,
        1
      ]
    },
    {
      "matrix": [
        1,
        0,
        0,
        0,
        0,
        2.220446049250313e-16,
        -1,
        0,
        0,
        1,
        2.220446049250313e-16,
        0,
        0,
        0,
        0,
        1
      ],
      "name": "Object003",
      "mesh": 0
    },
    {
      "name": "XB",
      "children": [
        1
      ]
    },
    {
      "matrix": [
        0.6707883455698662,
        -2.3687491329527077e-8,
        0.7416488356679602,
        0,
        0.29450173964192483,
        0.9177794481518515,
        -0.2663636797650213,
        0,
        -0.6806700528123164,
        0.3970905243771027,
        0.6156357645998126,
        0,
        -680.6700528123171,
        397.0905243771031,
        615.6357645998131,
        1
      ],
      "camera": 0
    },
    {
      "matrix": [
        1,
        0,
        0,
        0,
        0,
        1,
        0,
        0,
        0,
        0,
        1,
        0,
        0,
        1,
        0,
        1
      ],
      "name": "Default Ambient Light"
    },
    {
      "name": "Scene",
      "children": [
        2,
        3,
        4
      ]
    }
  ],
  "bufferViews": [
    {
      "buffer": 0,
      "byteOffset": 0,
      "byteLength": 806256,
      "target": 34962,
      "byteStride": 12
    },
    {
      "buffer": 0,
      "byteOffset": 806256,
      "byteLength": 806256,
      "target": 34962,
      "byteStride": 12
    },
    {
      "buffer": 0,
      "byteOffset": 1612512,
      "byteLength": 537504,
      "target": 34962,
      "byteStride": 8
    }
  ],
  "buffers": [
    {
      "byteLength": 2150016,
      "uri": "data:application/octet-stream;base64,"
    }
  ],
  "accessors": [
    {
      "bufferView": 0,
      "componentType": 5126,
      "count": 67188,
      "max": [
        96.03211975097656,
        83.66059112548828,
        181.05203247070312
      ],
      "min": [
        -89.51021575927734,
        -100.9388198852539,
        0.13276471197605133
      ],
      "type": "VEC3"
    },
    {
      "bufferView": 1,
      "componentType": 5126,
      "count": 67188,
      "max": [
        0.9999980926513672,
        0.9999983906745911,
        0.99991774559021
      ],
      "min": [
        -0.9999943375587463,
        -0.9999701976776123,
        -0.9999982714653015
      ],
      "type": "VEC3"
    },
    {
      "bufferView": 2,
      "componentType": 5126,
      "count": 67188,
      "max": [
        0.999500036239624,
        0.9981200098991394
      ],
      "min": [
        0.0005000000237487257,
        0.0005000000237487257
      ],
      "type": "VEC2"
    }
  ],
  "meshes": [
    {
      "primitives": [
        {
          "mode": 4,
          "attributes": {
            "POSITION": 0,
            "NORMAL": 1,
            "TEXCOORD_0": 2
          },
          "extras": {
            "parameters": {
              "width": 185.5423355102539,
              "height": 184.5994110107422,
              "depth": 180.91926775872707,
              "subdivisions": 0
            },
            "type": "NonParametricGeometry"
          }
        }
      ]
    }
  ],
  "cameras": [
    {
      "type": "orthographic",
      "orthographic": {
        "xmag": 4.998624856249999,
        "ymag": 2.47725967140625,
        "zfar": 100000,
        "znear": 0
      }
    }
  ]
}